<?xml version="1.0" standalone="no"?>
<!DOCTYPE svg PUBLIC "-//W3C//DTD SVG 20010904//EN"
 "http://www.w3.org/TR/2001/REC-SVG-20010904/DTD/svg10.dtd">
<svg version="1.0" xmlns="http://www.w3.org/2000/svg"
 width="461.000000pt" height="555.000000pt" viewBox="0 0 461.000000 555.000000"
 preserveAspectRatio="xMidYMid meet">
<metadata>
Created by potrace 1.16, written by Peter Selinger 2001-2019
</metadata>
<g transform="translate(0.000000,555.000000) scale(0.100000,-0.100000)"
fill="#000000" stroke="none">
<path d="M1655 5521 c-182 -51 -300 -97 -480 -188 -465 -234 -851 -583 -1028
-930 -183 -359 -156 -612 76 -726 44 -21 57 -33 57 -50 0 -27 49 -222 97 -381
l35 -118 -50 -50 c-94 -93 -142 -218 -142 -368 1 -321 221 -558 560 -601 l87
-11 23 -67 c33 -98 140 -316 192 -396 105 -158 240 -292 383 -379 70 -43 216
-109 268 -121 33 -9 35 -30 6 -88 -35 -67 -70 -105 -139 -151 -89 -59 -138
-79 -343 -147 -255 -84 -417 -171 -592 -319 -117 -100 -226 -237 -296 -372
l-29 -58 67 0 68 0 28 51 c117 207 330 397 548 488 l93 39 34 -41 c43 -53 448
-454 507 -502 42 -35 45 -36 120 -33 l76 3 -103 105 c-57 58 -182 181 -278
273 -198 190 -239 235 -218 241 7 2 49 18 93 34 l79 29 111 -112 c114 -115
392 -379 438 -415 48 -38 130 -70 180 -70 63 0 108 24 198 106 41 37 99 89
129 117 30 27 132 125 226 219 l172 170 91 -32 c50 -18 91 -36 91 -41 0 -12
-122 -141 -235 -249 -55 -52 -165 -159 -245 -237 l-145 -143 83 0 84 0 194
181 c172 161 304 296 371 382 21 28 24 28 60 16 268 -88 515 -288 650 -528
l28 -51 68 0 68 0 -38 72 c-70 135 -198 289 -323 389 -152 123 -317 208 -557
288 -219 73 -259 90 -344 146 -84 56 -135 123 -159 206 -8 27 -6 28 83 60 299
106 556 304 725 555 50 75 140 258 167 342 14 44 20 52 42 52 46 0 147 31 223
68 104 51 214 160 264 262 62 128 80 259 52 391 -14 65 -65 181 -86 194 -18
11 -11 34 76 223 282 611 322 945 155 1297 -101 211 -235 334 -427 391 -54 16
-166 20 -277 11 -25 -2 -30 3 -52 56 -13 32 -36 77 -51 99 -100 144 -323 298
-547 377 -206 72 -192 71 -744 70 l-498 0 -100 -28z m1475 -1702 c0 -39 54
-131 103 -175 96 -87 233 -131 366 -120 l74 6 -6 -273 c-9 -398 -50 -713 -132
-996 -150 -521 -437 -860 -843 -994 -265 -89 -588 -101 -857 -32 -557 141
-878 633 -995 1529 -26 196 -48 460 -56 664 l-7 162 39 0 c110 0 307 45 584
134 91 30 175 56 186 60 18 6 23 0 34 -39 36 -128 219 -209 470 -209 191 1
349 40 645 162 237 97 379 150 388 145 4 -2 7 -13 7 -24z m-2452 -757 c8 -5
18 -58 27 -138 26 -238 70 -497 110 -644 8 -30 12 -56 10 -58 -9 -9 -157 28
-210 53 -81 39 -175 130 -218 212 -124 240 -37 521 178 574 42 10 88 10 103 1z
m3238 -22 c115 -50 194 -208 180 -362 -14 -153 -94 -288 -219 -369 -52 -34
-183 -87 -192 -77 -2 1 5 39 16 83 42 175 89 511 89 641 0 28 3 66 6 83 6 30
8 31 43 25 20 -3 54 -14 77 -24z m-1726 -1969 c119 -1 201 6 306 24 31 5 32 4
49 -47 33 -104 97 -185 199 -254 l49 -33 -79 -82 c-43 -45 -155 -154 -249
-242 -216 -204 -276 -235 -367 -188 -50 25 -518 468 -518 490 0 3 21 17 47 31
77 41 179 143 213 215 17 35 30 72 30 82 0 11 2 22 5 24 2 3 44 0 92 -7 49 -7
149 -13 223 -13z"/>
<path d="M1291 3299 c-84 -14 -105 -28 -109 -70 -4 -48 20 -73 62 -65 159 28
241 28 414 0 64 -10 111 50 75 95 -31 38 -305 63 -442 40z"/>
<path d="M2755 3296 c-86 -17 -105 -30 -105 -70 0 -20 8 -40 20 -51 18 -16 26
-17 73 -7 116 24 215 23 386 -4 63 -10 110 51 74 95 -33 40 -317 63 -448 37z"/>
<path d="M1395 3016 c-121 -38 -172 -86 -146 -135 23 -42 46 -44 113 -12 35
16 77 32 95 36 l32 6 -6 -68 c-11 -128 56 -223 155 -223 38 0 50 6 82 38 68
68 87 193 40 270 -25 40 -76 78 -125 91 -53 15 -190 13 -240 -3z"/>
<path d="M2785 3016 c-123 -40 -172 -86 -146 -135 23 -42 46 -44 113 -12 35
16 77 32 93 36 l31 6 -1 -83 c0 -65 4 -92 21 -123 28 -54 76 -85 130 -85 94 0
171 130 144 247 -14 63 -47 106 -104 135 -51 27 -217 36 -281 14z"/>
<path d="M2223 2829 c-12 -4 -24 -18 -27 -31 -2 -13 -12 -63 -20 -111 -9 -49
-33 -140 -53 -204 l-37 -115 22 -18 c54 -44 230 -50 252 -10 12 22 -3 69 -22
71 -7 1 -39 0 -72 -1 -57 -2 -59 -1 -53 22 3 12 19 77 37 143 17 66 32 149 33
184 2 55 -1 64 -18 71 -11 4 -30 4 -42 -1z"/>
<path d="M1942 2028 c-7 -7 -12 -25 -12 -40 0 -34 34 -57 130 -90 120 -41 304
-23 397 37 38 26 25 85 -19 85 -10 0 -51 -11 -92 -25 -43 -15 -97 -25 -129
-25 -59 0 -170 30 -202 54 -24 19 -57 20 -73 4z"/>
</g>
</svg>
