<?xml version="1.0" standalone="no"?>
<!DOCTYPE svg PUBLIC "-//W3C//DTD SVG 20010904//EN"
 "http://www.w3.org/TR/2001/REC-SVG-20010904/DTD/svg10.dtd">
<svg version="1.0" xmlns="http://www.w3.org/2000/svg"
 width="240.000000pt" height="89.000000pt" viewBox="0 0 240.000000 89.000000"
 preserveAspectRatio="xMidYMid meet">
<metadata>
Created by potrace 1.16, written by Peter Selinger 2001-2019
</metadata>
<g transform="translate(0.000000,89.000000) scale(0.100000,-0.100000)"
fill="#000000" stroke="none">
<path d="M275 663 c3 -7 7 -19 11 -27 3 -8 -6 -18 -26 -26 -48 -20 -71 -80
-30 -80 26 0 77 26 83 42 3 7 6 3 6 -8 1 -29 -33 -70 -65 -78 -22 -6 -24 -9
-13 -22 13 -16 75 -16 110 0 11 5 19 -1 27 -18 10 -23 9 -27 -16 -40 -24 -14
-25 -15 -6 -16 39 0 45 20 42 151 l-3 124 -63 5 c-47 4 -61 2 -57 -7z"/>
<path d="M1015 670 l-570 -5 -3 -124 c-2 -82 1 -128 9 -137 9 -12 94 -14 495
-14 l484 0 30 46 c16 26 37 70 46 98 18 55 37 88 68 124 11 12 18 21 15 20 -2
-2 -260 -5 -574 -8z m-385 -70 c0 -16 -7 -20 -35 -20 -24 0 -35 -5 -35 -15 0
-10 10 -15 31 -15 38 0 35 -24 -4 -28 -41 -5 -34 -32 8 -32 28 0 35 -4 35 -20
0 -18 -7 -20 -60 -20 l-60 0 0 85 0 85 60 0 c53 0 60 -2 60 -20z m150 7 c30
-15 37 -48 15 -71 -15 -15 -15 -19 11 -49 l27 -32 -26 -3 c-19 -2 -34 6 -56
30 l-30 33 -1 -32 c0 -28 -4 -33 -25 -33 -24 0 -25 2 -25 69 0 38 -3 76 -6 85
-5 13 2 16 42 16 27 0 60 -6 74 -13z m201 -16 c32 -33 36 -58 14 -100 -38 -75
-165 -44 -165 39 0 43 47 90 90 90 22 0 41 -9 61 -29z m239 -8 l1 -38 30 38
c23 28 38 37 61 37 l29 0 -30 -37 c-17 -21 -31 -41 -31 -46 0 -5 11 -23 25
-41 32 -42 31 -46 -4 -46 -23 0 -34 8 -53 38 l-23 37 -3 -37 c-3 -33 -7 -38
-28 -38 -24 0 -24 2 -24 85 0 84 0 85 25 85 22 0 25 -4 25 -37z"/>
<path d="M1592 643 c-10 -16 -32 -61 -47 -101 -16 -40 -44 -90 -62 -112 l-35
-40 445 0 c417 0 445 1 460 18 24 26 25 223 1 246 -13 14 -62 16 -379 16
l-364 0 -19 -27z"/>
</g>
</svg>
